.
 
http://www.scenetime.com    -   SceneTime [ We been having it ] !!!


How come you press harder on a remote control when you know the battery is dead? so you better seed to get speed ;)

        Seed back for speed


...................................NFO:................................................. 888888ba   88888888b dP     dP  88888888b dP         .d888888  d888888P oo  .88888.  888888ba  
 88    `8b  88        88     88  88        88        d8'    88     88       d8'   `8b 88    `8b 
a88aaaa8P' a88aaaa    88    .8P a88aaaa    88        88aaaaa88a    88    dP 88     88 88     88 
 88   `8b.  88        88    d8'  88        88        88     88     88    88 88     88 88     88 
 88     88  88        88  .d8P   88        88        88     88     88    88 Y8.   .8P 88     88 
 dP     dP  88888888P 888888'    88888888P 88888888P 88     88     dP    dP  `8888P'  dP     dP 
                                                                                                
************************************BRINGS TO YOU*********************************************



The Smurfs 2011 TS XViD - REVELATiON


IMDb URL..........:http://www.imdb.com/title/tt0472181/
IMDB Rating.......:4.0/10                                                                 
Runtime...........:1h 34mn
Subtitles.........:NIL
Language..........:ENGLISH
Resolution........:720 x 480                                      

[color=RED]VIDEO:[/color]
The.Smurfs.2011.CAM.XViD-GANE13

[color=RED]AUDIO:[/color]
The Smurfs 2011 TS XViD - IMAGiNE


[color=yellow]VIDEO:[/color]
ID                               : 0
Format                           : MPEG-4 Visual
Format profile                   : Advanced Simple@L5
Format settings, BVOP            : 2
Format settings, QPel            : No
Format settings, GMC             : No warppoints
Format settings, Matrix          : Default (MPEG)
Muxing mode                      : Packed bitstream
Codec ID                         : XVID
Codec ID/Hint                    : XviD
Duration                         : 1h 34mn
Bit rate                         : 1 943 Kbps
Width                            : 720 pixels
Height                           : 480 pixels
Display aspect ratio             : 3:2
Frame rate                       : 29.970 fps
Standard                         : NTSC
Color space                      : YUV
Chroma subsampling               : 4:2:0
Bit depth                        : 8 bits
Scan type                        : Progressive
Compression mode                 : Lossy
Bits/(Pixel*Frame)               : 0.188
Stream size                      : 1.28 GiB (93%)
Writing library                  : XviD 64

[color=yellow]AUDIO:[/color]
ID                               : 1
Format                           : MPEG Audio
Format version                   : Version 1
Format profile                   : Layer 3
Mode                             : Joint stereo
Mode extension                   : MS Stereo
Codec ID                         : 55
Codec ID/Hint                    : MP3
Duration                         : 1h 34mn
Bit rate mode                    : Constant
Bit rate                         : 128 Kbps
Channel(s)                       : 2 channels
Sampling rate                    : 44.1 KHz
Compression mode                 : Lossy
Stream size                      : 86.1 MiB (6%)
Alignment                        : Split accross interleaves
Interleave, duration             : 33 ms (1.00 video frame)
Interleave, preload duration     : 500 ms
Writing library                  : LAME3.98r
Encoding settings                : -m j -V 4 -q 2 -lowpass

[color=RED]WORK DONE:[/color]
Tweaked colours
Changed brightness and contrast
Used heavy denoiser
Add more sharpness back.

[color=RED]GREEST 2 U ALL[/color]